<svg width="55" height="52" viewBox="0 0 55 52" fill="none" xmlns="http://www.w3.org/2000/svg">
<ellipse cx="27.5963" cy="26" rx="27.276" ry="26" fill="#EBEFBF"/>
<path d="M15.896 16.4023H16.7046V35H15.896V16.4023ZM14.2788 16.4023H15.0874V35H14.2788V16.4023ZM12.6616 16.4023H13.4702V35H12.6616V16.4023ZM11.0444 16.4023H11.853V35H11.0444V16.4023ZM18.479 17.2109V16.4023H30.6079V17.2109H18.479ZM18.479 18.8281V18.0195H30.6079V18.8281H18.479ZM18.479 20.4453V19.6367H30.6079V20.4453H27.3735V35H26.5649V20.4453H25.7563V35H24.9478V20.4453H24.1392V35H23.3306V20.4453H22.522V35H21.7134V20.4453H18.479ZM38.1099 35H37.3013V16.4023H46.252V17.2109H38.1099V18.0195H46.252V18.8281H38.1099V19.6367H46.252V20.4453H38.1099V24.4883H45.8701V25.2969H38.1099V26.1055H45.8701V26.9141H38.1099V27.7227H45.8701V28.5312H38.1099V35ZM36.4927 35H35.6841V16.4023H36.4927V35ZM34.8755 35H34.0669V16.4023H34.8755V35ZM33.2583 35H32.4497V16.4023H33.2583V35Z" fill="black"/>
</svg>
